<svg width="28" height="28" viewBox="0 0 28 28" fill="none" xmlns="http://www.w3.org/2000/svg">
<path d="M14 14C16.5774 14 18.6667 11.9107 18.6667 9.33335C18.6667 6.75602 16.5774 4.66669 14 4.66669C11.4227 4.66669 9.33337 6.75602 9.33337 9.33335C9.33337 11.9107 11.4227 14 14 14Z" stroke="#3A3A3A"/>
<path d="M23.3334 22.1667V23.3334C23.3334 23.6428 23.2104 23.9395 22.9916 24.1583C22.7729 24.3771 22.4761 24.5 22.1667 24.5H5.83335C5.52393 24.5 5.22719 24.3771 5.0084 24.1583C4.7896 23.9395 4.66669 23.6428 4.66669 23.3334V22.1667C4.66669 20.3102 5.40419 18.5297 6.71694 17.2169C8.02969 15.9042 9.81017 15.1667 11.6667 15.1667H16.3334C18.1899 15.1667 19.9703 15.9042 21.2831 17.2169C22.5959 18.5297 23.3334 20.3102 23.3334 22.1667Z" stroke="#3A3A3A"/>
</svg>
